<svg xmlns="http://www.w3.org/2000/svg" width="12" height="12" viewBox="0 0 12 12">
    <path fill="#797979" fill-rule="evenodd" d="M6 12A6 6 0 1 1 6 0a6 6 0 0 1 0 12zM3.286 6.304v.319h1.072v1.59c0 .168-.026.316-.08.442a1.096 1.096 0 0 1-.211.33 1.215 1.215 0 0 1-.303.234 1.794 1.794 0 0 1-.357.149V10h5.302a.388.388 0 0 0 .308-.14.491.491 0 0 0 .085-.138c.02-.05.03-.1.03-.151v-.418H5.414c-.11 0-.217.006-.321.02-.105.012-.21.028-.317.046.184-.165.328-.347.432-.547.105-.2.157-.437.157-.713V6.623h2.14c.08 0 .148-.027.203-.082a.252.252 0 0 0 .083-.182v-.396H5.365V4.517c0-.25.03-.475.088-.677.059-.202.147-.374.264-.517.117-.143.264-.253.44-.33.176-.077.38-.115.61-.115.166 0 .308.019.43.057a1.217 1.217 0 0 1 .574.38c.075.086.15.175.223.266.04.052.083.088.13.108.045.02.094.03.145.03a.486.486 0 0 0 .113-.014.398.398 0 0 0 .113-.046l.395-.253a2.808 2.808 0 0 0-.321-.534 2.1 2.1 0 0 0-1.04-.729 2.482 2.482 0 0 0-.762-.107c-.403 0-.755.065-1.055.195-.301.13-.552.308-.754.534-.202.225-.352.49-.451.792a3.102 3.102 0 0 0-.149.97v1.436h-.736a.314.314 0 0 0-.248.099.351.351 0 0 0-.088.242z"/>
</svg>
