<svg xmlns="http://www.w3.org/2000/svg" width="12" height="11" viewBox="0 0 12 11">
    <g fill="#797979" fill-rule="nonzero">
        <path d="M6 6a3 3 0 0 0 3-3C9 .702 7.657 0 6 0S3 .702 3 3a3 3 0 0 0 3 3zM11.941 10.125L10.584 7.32a.65.65 0 0 0-.307-.3L8.893 6.014c-.047-.022-.825.982-.867 1.011A3.537 3.537 0 0 1 6 7.657c-.73 0-1.43-.218-2.026-.632-.042-.029-1.03-1.033-1.076-1.011L1.723 7.02a.65.65 0 0 0-.307.3L.06 10.125a.577.577 0 0 0 .051.592.693.693 0 0 0 .569.283h10.642c.23 0 .443-.106.569-.283a.577.577 0 0 0 .051-.592z"/>
    </g>
</svg>
