<svg xmlns="http://www.w3.org/2000/svg" width="50" height="62" viewBox="0 0 50 62">
    <path fill="#129A44" fill-rule="nonzero" d="M25.465 4.391h-1.35a1.308 1.308 0 0 1-1.308-1.308v-.044A3.037 3.037 0 0 0 19.772 0h-.07a3.037 3.037 0 0 0-3.035 3.039v.044c0 .722-.585 1.308-1.307 1.308h-1.351A2.607 2.607 0 0 0 11.404 7v.053a2.607 2.607 0 0 0 2.605 2.608h11.456a2.607 2.607 0 0 0 2.605-2.608V7a2.607 2.607 0 0 0-2.605-2.608zm-5.728 0a1.317 1.317 0 1 1 .001-2.633 1.317 1.317 0 0 1-.001 2.633zm5.858 50.937H3.509A3.51 3.51 0 0 1 0 51.815V9.66c0-1.94 1.57-3.512 2.632-3.512H9.74c-.059.291-.09.594-.09.904a4.367 4.367 0 0 0 4.36 4.365h11.455c2.404 0 4.36-1.958 4.36-4.418a4.38 4.38 0 0 0-.086-.851h5.349c2.815 0 4.386 1.572 4.386 3.512v26.391c-.292-.018-.581-.044-.877-.044a13.95 13.95 0 0 0-3.51.462V15.808H4.387v35.129h20.22a13.96 13.96 0 0 0 .989 4.39zm13.002-16.686c-6.298 0-11.404 5.111-11.404 11.417 0 6.305 5.106 11.416 11.404 11.416S50 56.364 50 50.06c0-6.306-5.105-11.417-11.403-11.417zm7.451 9.07l-7.018 7.905a1.75 1.75 0 0 1-2.407.204l-4.386-3.513a1.757 1.757 0 0 1-.273-2.468 1.752 1.752 0 0 1 2.465-.275l3.085 2.471 5.912-6.658a1.752 1.752 0 0 1 2.476-.145c.725.645.79 1.754.146 2.48zM30.702 30.739H16.667a.878.878 0 0 1-.877-.879v-.878c0-.485.392-.878.877-.878h14.035c.484 0 .877.393.877.878v.878a.878.878 0 0 1-.877.879zm0-7.904H16.667a.878.878 0 0 1-.877-.879v-.878c0-.485.392-.878.877-.878h14.035c.484 0 .877.393.877.878v.878a.878.878 0 0 1-.877.879zm-4.386 14.93h-9.65a.878.878 0 0 1-.876-.879v-.878c0-.485.392-.878.877-.878h9.649c.484 0 .877.393.877.878v.878a.878.878 0 0 1-.877.878zm-1.755 7.903h-7.894a.878.878 0 0 1-.878-.878v-.878c0-.485.393-.878.878-.878h7.894c.485 0 .878.393.878.878v.878a.878.878 0 0 1-.878.878zM14.11 19.586l-3.23 3.639a.805.805 0 0 1-1.109.094L7.752 21.7a.809.809 0 0 1 1.01-1.262l1.42 1.137 2.72-3.065a.81.81 0 0 1 1.207 1.075zm0 7.813l-3.23 3.64a.805.805 0 0 1-1.109.093l-2.019-1.617a.809.809 0 0 1 1.01-1.263l1.42 1.138 2.72-3.065A.81.81 0 0 1 14.11 27.4zm0 7.473l-3.23 3.639a.806.806 0 0 1-1.109.093l-2.019-1.617a.809.809 0 0 1 1.01-1.262l1.42 1.137 2.72-3.065a.807.807 0 0 1 1.14-.067.81.81 0 0 1 .068 1.142zm0 7.525l-3.23 3.639a.805.805 0 0 1-1.109.094l-2.019-1.618a.809.809 0 0 1 1.01-1.262l1.42 1.137 2.72-3.065a.807.807 0 0 1 1.14-.067.81.81 0 0 1 .068 1.142z"/>
</svg>
