<svg xmlns="http://www.w3.org/2000/svg" width="102" height="102" viewBox="0 0 102 102">
    <g fill="none" fill-rule="evenodd" transform="translate(1 1)">
        <g fill="#000" fill-rule="nonzero" opacity=".2">
            <path d="M49.95 50h.1c8.06-.088 6.89-10.876 6.89-10.876-.326-7.209-6.349-7.146-6.94-7.12-.591-.026-6.601-.089-6.94 7.12 0 .012-1.17 10.8 6.89 10.876zM68.96 54h.081c6.901-.06 5.91-8.454 5.91-8.454-.282-5.604-5.441-5.555-5.95-5.543-.51-.024-5.669-.06-5.95 5.543 0 .012-1.005 8.393 5.91 8.454z"/>
            <path d="M80.987 62.69c-.05-1.868-.419-3.168-2.335-4.367-2.552-1.59-5.408-2.966-5.408-2.966L70.97 62.5l-1.32-3.748c2.323-3.23-.165-3.395-.61-3.395h-.025c-.444 0-2.932.164-.609 3.395l-1.32 3.736-2.273-7.144s-.812.392-1.954.997a8.418 8.418 0 0 0-.89-.63c-3.173-1.982-6.714-3.698-6.714-3.698l-2.819 8.872-1.65-4.657c2.894-4.013-.203-4.215-.762-4.228H50c-.559 0-3.656.202-.762 4.228l-1.65 4.657-2.818-8.872s-3.542 1.716-6.716 3.697a9.23 9.23 0 0 0-.9.644 50.522 50.522 0 0 0-1.981-1.01L32.9 62.488l-1.32-3.736c2.323-3.23-.165-3.395-.61-3.395h-.024c-.445 0-2.933.164-.61 3.395l-1.32 3.736-2.272-7.144s-2.857 1.376-5.408 2.966c-1.93 1.2-2.285 2.5-2.336 4.367V69H81l-.013-6.31z"/>
            <path d="M30.959 54h.08c6.915-.06 5.91-8.454 5.91-8.454-.281-5.604-5.44-5.555-5.95-5.543-.509-.024-5.668-.06-5.95 5.543 0 .012-.991 8.393 5.91 8.454z"/>
        </g>
        <circle cx="50" cy="50" r="50" stroke="#E5E5E5"/>
    </g>
</svg>
